<?xml version="1.0" encoding="iso-8859-1"?>
<!-- Generator: Adobe Illustrator 19.0.0, SVG Export Plug-In . SVG Version: 6.00 Build 0)  -->
<svg version="1.1" id="Layer_1" xmlns="http://www.w3.org/2000/svg" xmlns:xlink="http://www.w3.org/1999/xlink" x="0px" y="0px"
	 viewBox="0 0 512.002 512.002" style="enable-background:new 0 0 512.002 512.002;" xml:space="preserve">
<rect x="36.126" y="158.945" transform="matrix(-0.7071 0.7071 -0.7071 -0.7071 617.9775 256.1526)" style="fill:#D8766A;" width="439.624" height="194.238"/>
<g>
	<path style="fill:#E4AAA9;" d="M410.479,43.354l-16.007,40.127l34.048,34.048l40.127-16.007c29.872-11.914,37.81-50.5,15.07-73.239
		l0,0C460.979,5.545,422.393,13.484,410.479,43.354z"/>
	<path style="fill:#E4AAA9;" d="M101.524,468.647l16.007-40.127l-34.048-34.048l-40.127,16.007
		c-29.872,11.914-37.81,50.5-15.07,73.239l0,0C51.024,506.458,89.61,498.519,101.524,468.647z"/>
</g>
<path d="M494.437,17.565C480.14,3.268,459.78-2.836,439.983,1.241c-19.803,4.075-36.096,17.719-43.585,36.497l-7.551,18.93
	l-35.432-35.433c-5.921-5.918-15.517-5.918-21.44,0L21.11,332.102c-5.92,5.92-5.92,15.519,0,21.44l35.378,35.378l-18.749,7.48
	c-18.778,7.489-32.422,23.782-36.497,43.585c-4.075,19.803,2.028,40.158,16.324,54.455c11.377,11.376,26.588,17.562,42.307,17.562
	c4.034,0,8.104-0.408,12.147-1.239c19.803-4.075,36.097-17.719,43.585-36.497l7.48-18.749l35.378,35.378
	c2.961,2.959,6.84,4.44,10.719,4.44s7.759-1.481,10.719-4.44L490.767,180.03c5.92-5.92,5.92-15.519,0-21.44l-35.432-35.433
	l18.93-7.551c18.778-7.489,32.422-23.782,36.497-43.585C514.835,52.218,508.733,31.862,494.437,17.565z M87.443,463.031
	c-3.757,9.417-11.605,15.99-21.534,18.034c-9.933,2.04-19.738-0.897-26.905-8.065s-10.108-16.974-8.065-26.905
	c2.044-9.93,8.617-17.779,18.034-21.534l30.85-12.307l19.929,19.929L87.443,463.031z M169.181,458.733l-40.922-40.922
	c-0.003-0.003-0.006-0.006-0.009-0.011l-34.048-34.048c-0.003-0.003-0.008-0.006-0.011-0.009l-0.117-0.117l188.693-188.693
	c5.92-5.92,5.92-15.519,0-21.44c-5.921-5.918-15.517-5.918-21.44,0L72.636,362.186l-19.365-19.365L342.695,53.396l115.912,115.912
	L169.181,458.733z M481.064,65.91c-2.044,9.93-8.617,17.779-18.034,21.534l-30.851,12.307l-19.927-19.926l12.307-30.853
	c3.757-9.417,11.605-15.99,21.534-18.034c9.936-2.036,19.738,0.897,26.905,8.065S483.106,55.979,481.064,65.91z"/>
<path d="M304.209,167.211c-0.985,0-1.986-0.091-2.971-0.287c-0.955-0.199-1.91-0.485-2.835-0.864
	c-0.91-0.379-1.789-0.85-2.607-1.395c-0.834-0.561-1.608-1.198-2.306-1.895s-1.334-1.472-1.895-2.306
	c-0.544-0.819-1.016-1.698-1.395-2.607c-0.379-0.925-0.665-1.88-0.863-2.835c-0.199-0.984-0.288-1.986-0.288-2.971
	c0-0.985,0.091-1.986,0.288-2.956s0.484-1.925,0.863-2.835c0.379-0.923,0.85-1.802,1.395-2.621c0.561-0.834,1.182-1.608,1.895-2.306
	c0.697-0.697,1.472-1.334,2.306-1.878c0.819-0.546,1.698-1.016,2.607-1.395c0.925-0.379,1.88-0.667,2.835-0.864
	c4.927-1.001,10.172,0.622,13.689,4.137c0.697,0.697,1.334,1.472,1.878,2.306c0.546,0.819,1.017,1.698,1.396,2.621
	c0.379,0.911,0.666,1.865,0.863,2.835c0.197,0.972,0.303,1.971,0.303,2.956s-0.106,1.987-0.303,2.971
	c-0.197,0.955-0.484,1.91-0.863,2.835c-0.379,0.91-0.85,1.789-1.396,2.607c-0.544,0.834-1.181,1.608-1.878,2.306
	c-0.697,0.697-1.472,1.334-2.306,1.895c-0.819,0.544-1.698,1.016-2.621,1.395c-0.911,0.379-1.865,0.666-2.835,0.864
	C306.193,167.121,305.194,167.211,304.209,167.211z"/>
<g>
</g>
<g>
</g>
<g>
</g>
<g>
</g>
<g>
</g>
<g>
</g>
<g>
</g>
<g>
</g>
<g>
</g>
<g>
</g>
<g>
</g>
<g>
</g>
<g>
</g>
<g>
</g>
<g>
</g>
</svg>
